Coordinates																			
version=1																			
nRows=25																			
nColumns=20																			
inDegrees=yes																			
																			
Units are S.I. units (second	 meters	 Newtons	 ...)																
If the header above contains a line with 'inDegrees'	 this indicates whether rotational values are in degrees (yes) or radians (no).																		
																			
endheader																			
time	pelvis_tilt	pelvis_list	pelvis_rotation	pelvis_tx	pelvis_ty	pelvis_tz	hip_flexion_r	hip_adduction_r	hip_rotation_r	knee_angle_r	ankle_angle_r	hip_flexion_l	hip_adduction_l	hip_rotation_l	knee_angle_l	ankle_angle_l	lumbar_extension	lumbar_bending	lumbar_rotation
3.46	2.19146865	9.46460709	87.06752117	0.0086063	0.94518763	0.76870878	-25.78414978	-1.64517704	-19.51685983	-17.97850533	-5.63736585	17.26475925	-6.23871476	-27.47803398	-1.91114398	-17.67834989	-22.57984112	0.34730049	1.71079891
3.47	1.66476507	9.69616289	86.76583202	0.00653064	0.94575277	0.75318585	-25.68074314	-2.88702617	-19.34133938	-19.99877454	-7.7601642	16.70116345	-5.83834703	-27.13181953	-2.98033174	-18.55719979	-22.8033287	-0.39296826	1.9390202
3.48	1.14083135	9.93039152	86.53842977	0.00423388	0.94672466	0.73777828	-25.36268133	-4.11902617	-19.08883697	-22.2700937	-10.17391132	16.11269064	-5.36905088	-26.75218006	-3.96608455	-19.45962536	-23.05026612	-1.07245881	2.01831046
3.49	0.59746951	10.17826071	86.34644623	0.00179722	0.94812323	0.7225057	-24.82856416	-5.35562233	-18.63767715	-24.79015612	-12.76941906	15.46296102	-4.81858909	-26.43082914	-4.83106157	-20.35456566	-23.31930802	-1.76598444	2.06079474
3.5	0.06346645	10.41844722	86.20452385	-0.00076949	0.9498821	0.70742231	-24.0563147	-6.5373243	-17.98223548	-27.5389461	-15.51086723	14.78750769	-4.22297893	-26.14207397	-5.5985341	-21.18792525	-23.60156835	-2.41854923	2.05251944
3.51	-0.44827106	10.63489726	86.10128219	-0.00341479	0.95193888	0.69256901	-23.03189395	-7.62702089	-17.09413108	-30.4898243	-18.31647084	14.09750338	-3.60668429	-25.90219314	-6.26716966	-21.9285341	-23.88128569	-3.02244966	1.99798698
3.52	-0.91470304	10.81184577	86.03084252	-0.00608416	0.95422526	0.67798485	-21.7538149	-8.57407328	-15.98114544	-33.60519503	-21.08274559	13.41252184	-3.0069043	-25.71678033	-6.8541359	-22.55352996	-24.14976912	-3.56063957	1.90429401
3.53	-1.32872089	10.93740268	85.97458295	-0.00872837	0.95667688	0.66367882	-20.22870531	-9.36243296	-14.68787589	-36.84815343	-23.70530814	12.73135369	-2.43956291	-25.60796103	-7.34521773	-22.9820277	-24.37148328	-4.02178248	1.8027398
3.54	-1.65981139	11.02927875	85.94456097	-0.01132183	0.95928588	0.64966496	-18.52172669	-9.93974044	-13.28646849	-40.14064603	-26.12625343	12.03586497	-1.94159376	-25.56483439	-7.74158827	-23.39469571	-24.60534276	-4.38521748	1.67643213
3.55	-1.88095909	11.04577013	85.92708006	-0.01382211	0.96196006	0.63595233	-16.61332019	-10.27939903	-11.84275848	-43.4539159	-28.20368368	11.36920535	-1.55376641	-25.57844248	-8.04756275	-23.76756617	-24.7748431	-4.62520922	1.4868671
3.56	-2.02616221	11.03717147	85.92366313	-0.0162535	0.9647385	0.62248997	-14.60171425	-10.44973771	-10.48462516	-46.7289098	-29.8852323	10.66667166	-1.23371657	-25.6717274	-8.2497426	-23.99163609	-24.94314839	-4.76855127	1.31652279
3.57	-2.07763978	10.99889918	85.92780732	-0.01859506	0.96759553	0.60926804	-12.51305222	-10.44708476	-9.2572163	-49.91925356	-31.09124664	9.93045759	-1.00185556	-25.81111603	-8.3374185	-24.15344148	-25.08788438	-4.79992526	1.14835738
3.58	-2.03961429	10.93836886	85.94203404	-0.02085306	0.97051511	0.59627144	-10.38356885	-10.30075958	-8.21884902	-52.98338183	-31.78378238	9.15955434	-0.85525264	-25.98134883	-8.31841972	-24.27161064	-25.22138968	-4.72519882	0.98438044
3.59	-1.9186737	10.85346725	85.96432165	-0.02303728	0.973462	0.58348611	-8.23056253	-10.03987213	-7.3970011	-55.88810405	-31.95332252	8.36423519	-0.78726169	-26.1684642	-8.20183903	-24.35754905	-25.33786981	-4.54677302	0.82011557
3.6	-1.727207	10.78606653	85.97710823	-0.02510718	0.9764695	0.57088076	-6.11744797	-9.69483604	-6.77949639	-58.59135352	-31.59385141	7.50485701	-0.79123467	-26.42652091	-8.00120907	-24.42211402	-25.48720444	-4.28169183	0.69723798
3.61	-1.46305162	10.65053881	86.03004468	-0.02714699	0.97937934	0.55848862	-3.96622856	-9.2643762	-6.41232637	-61.07455618	-30.78622125	6.69730073	-0.86416447	-26.57507037	-7.73204119	-24.48828831	-25.56678969	-3.90669472	0.56145632
3.62	-1.15511828	10.46493871	86.08073123	-0.02907822	0.98218193	0.54629279	-1.78857443	-8.7842295	-6.21941972	-63.31559167	-29.66319599	5.92962012	-0.98704446	-26.69606361	-7.41771244	-24.53699018	-25.58702041	-3.52387593	0.38179857
3.63	-0.81175153	10.29240738	86.14179084	-0.03091873	0.9849303	0.53423423	0.31798541	-8.27599737	-6.21278172	-65.27011631	-28.22885446	5.13650397	-1.14999441	-26.84239214	-7.06321956	-24.58322681	-25.63093792	-3.06427423	0.21779976
3.64	-0.4502002	10.11957532	86.2268832	-0.03269044	0.98757119	0.52229984	2.36230348	-7.76075375	-6.38166299	-66.92140966	-26.6322749	4.34784736	-1.33778415	-26.99683976	-6.69364472	-24.62703551	-25.67937221	-2.53817359	0.07733806
3.65	-0.08374947	9.91085946	86.31834206	-0.03435216	0.99002656	0.51049612	4.39223882	-7.23575502	-6.6565353	-68.26829113	-24.99927643	3.60519787	-1.53919395	-27.11738733	-6.31177494	-24.66672032	-25.67669827	-2.0427591	-0.08757597
3.66	0.28041073	9.69463446	86.42039078	-0.03590859	0.99231779	0.49877962	6.36303348	-6.70912439	-7.02145241	-69.29216653	-23.41074413	2.87808956	-1.74583803	-27.22155238	-5.92121132	-24.69786181	-25.64111556	-1.56445597	-0.29810381
3.67	0.67103667	9.55988901	86.55966902	-0.03739702	0.99457548	0.48708633	8.13951658	-6.16089809	-7.50365471	-69.9501989	-21.91809426	2.07346119	-1.98724655	-27.33719204	-5.53659098	-24.72923208	-25.70598285	-1.00460287	-0.39869811
3.68	0.99636587	9.38263183	86.71380514	-0.03881891	0.99655797	0.47546132	9.9039871	-5.68979154	-8.0350313	-70.32351773	-20.55272541	1.33822086	-2.17050773	-27.44776604	-5.16909723	-24.75238986	-25.70149798	-0.52188266	-0.53136753
3.69	1.24496622	9.15569688	86.89135696	-0.04019481	0.9982448	0.46389343	11.66007704	-5.32011882	-8.61893673	-70.42228295	-19.34140667	0.69225504	-2.28721164	-27.55367432	-4.84921368	-24.75059092	-25.64549696	-0.11540951	-0.8588396
3.7	1.54421284	9.05619757	87.07878072	-0.0414607	0.99996509	0.45226121	13.14660878	-4.89588056	-9.24211474	-70.14624805	-18.31545518	-0.11099916	-2.45603666	-27.63381632	-4.49098752	-24.73674113	-25.66800769	0.34297755	-1.01214879
